<svg width="200" height="48" viewBox="0 0 200 48" fill="none" xmlns="http://www.w3.org/2000/svg">
  <!-- Pixel Boba wordmark -->
  <g fill="#0F172A">
    <!-- P -->
    <path d="M8 8h8c4.4 0 8 3.6 8 8s-3.6 8-8 8h-4v8h-4V8z M12 12v8h4c2.2 0 4-1.8 4-4s-1.8-4-4-4h-4z"/>
    <!-- i with boba dot -->
    <path d="M28 16h4v16h-4V16z"/>
    <circle cx="30" cy="10" r="2.5" fill="#A78BFA"/> <!-- Boba pearl above i -->
    <!-- x -->
    <path d="M36 16l4 5.33L44 16h4.8l-5.6 7.47L48.8 32H44l-4-5.33L36 32h-4.8l5.6-8.53L31.2 16H36z"/>
    <!-- e -->
    <path d="M52 21c0-3.3 2.7-6 6-6s6 2.7 6 6v2H56c0 1.1.9 2 2 2h8v3H58c-3.3 0-6-2.7-6-6v-1z M56 20h8c0-1.1-.9-2-2-2s-2 .9-2 2z"/>
    <!-- l -->
    <path d="M68 8h4v24h-4V8z"/>
    <!-- Space -->
    <!-- B -->
    <path d="M84 8h8c4.4 0 8 3.6 8 8 0 2.2-.9 4.2-2.3 5.7C99.1 22.8 100 24.8 100 27c0 4.4-3.6 8-8 8h-8V8z M88 12v8h4c2.2 0 4-1.8 4-4s-1.8-4-4-4h-4z M88 24v7h4c2.8 0 5-2.2 5-5s-2.2-5-5-5h-4z"/>
    <!-- o -->
    <path d="M104 22c0-4.4 3.6-8 8-8s8 3.6 8 8v4c0 4.4-3.6 8-8 8s-8-3.6-8-8v-4z M108 22v4c0 2.2 1.8 4 4 4s4-1.8 4-4v-4c0-2.2-1.8-4-4-4s-4 1.8-4 4z"/>
    <!-- b -->
    <path d="M124 8h4v7c1.2-1.2 2.8-2 4.5-2 3.9 0 7 3.1 7 7v6c0 3.9-3.1 7-7 7-1.7 0-3.3-.8-4.5-2v1h-4V8z M128 20v6c0 1.7 1.3 3 3 3s3-1.3 3-3v-6c0-1.7-1.3-3-3-3s-3 1.3-3 3z"/>
    <!-- a -->
    <path d="M144 15c3.9 0 7 3.1 7 7v10h-4v-1c-1.2 1.2-2.8 2-4.5 2-3.9 0-7-3.1-7-7s3.1-7 7-7c1.2 0 2.3.3 3.3.8V22c0-1.7-1.3-3-3-3-1.2 0-2.2.7-2.7 1.7l-3.6-2.1c1.2-2.1 3.5-3.6 6-3.6z M143.5 25c-1.4 0-2.5 1.1-2.5 2.5s1.1 2.5 2.5 2.5 2.5-1.1 2.5-2.5-1.1-2.5-2.5-2.5z"/>
  </g>
</svg>