<?xml version="1.0" encoding="UTF-8"?>
<svg id="Capa_2" data-name="Capa 2" xmlns="http://www.w3.org/2000/svg" viewBox="0 0 170 170">
  <defs>
    <style>
      .cls-1 {
        fill: #9a6ee7;
      }
    </style>
  </defs>
  <g id="Capa_3_copia_2" data-name="Capa 3 copia 2">
    <g>
      <path class="cls-1" d="M85,22c34.74,0,63,28.26,63,63s-28.26,63-63,63-63-28.26-63-63,28.26-63,63-63M85,0C38.06,0,0,38.06,0,85s38.06,85,85,85,85-38.06,85-85S131.94,0,85,0h0Z"/>
      <g>
        <path class="cls-1" d="M137.45,85c1.72,0,3.1,1.44,3,3.15-1.63,29.18-25.81,52.35-55.41,52.35s-55.5-24.85-55.5-55.5c0-1.13.03-2.25.1-3.36.1-1.58,1.43-2.8,3.01-2.79l22.2.12c6.04.03,11.47,4.09,12.8,9.98,1.55,6.88,7,12.89,15.37,13.81,7.7.84,14.56-3.21,17.85-9.43,2.66-5.03,7.7-8.34,13.38-8.34h23.2Z"/>
        <circle class="cls-1" cx="61.92" cy="65.58" r="15"/>
        <rect class="cls-1" x="93.08" y="40.58" width="30" height="30" rx="3" ry="3"/>
      </g>
    </g>
  </g>
</svg>