<?xml version="1.0" encoding="UTF-8"?>
<svg id="Capa_3_copia_2" data-name="Capa 3 copia 2" xmlns="http://www.w3.org/2000/svg" viewBox="0 0 1000 1000">
  <defs>
    <style>
      .cls-1 {
        fill: #96f;
      }

      .cls-2 {
        fill: #111019;
      }
    </style>
  </defs>
  <g>
    <g>
      <path class="cls-2" d="M174.22,547.45v-206.95h30.16v31.28l-3.63-7.26c5.59-8.56,13.03-15.26,22.34-20.11,9.31-4.84,19.92-7.26,31.84-7.26,14.33,0,27.23,3.45,38.68,10.33,11.45,6.89,20.48,16.29,27.09,28.21,6.61,11.92,9.91,25.32,9.91,40.22s-3.31,28.3-9.91,40.22c-6.61,11.92-15.6,21.37-26.95,28.35-11.36,6.98-24.3,10.47-38.82,10.47-11.73,0-22.39-2.42-31.98-7.26-9.59-4.84-16.99-11.82-22.2-20.95l5.03-5.86v86.58h-31.56ZM251.58,465.62c8.94,0,16.9-2.14,23.88-6.42,6.98-4.28,12.43-10.2,16.34-17.73,3.91-7.54,5.87-16.06,5.87-25.55s-1.96-17.92-5.87-25.28c-3.91-7.35-9.36-13.22-16.34-17.6-6.98-4.37-14.94-6.56-23.88-6.56s-16.34,2.14-23.32,6.42c-6.98,4.29-12.48,10.19-16.48,17.73-4.01,7.54-6,15.97-6,25.28s2,18.01,6,25.55c4,7.54,9.5,13.45,16.48,17.73,6.98,4.29,14.75,6.42,23.32,6.42Z"/>
      <path class="cls-2" d="M347.37,319.83v-36.31h31.56v36.31h-31.56ZM347.37,491.59v-151.09h31.56v151.09h-31.56Z"/>
      <path class="cls-2" d="M386.75,491.59l52.78-75.69-53.06-75.41h37.42l43.29,63.12h-17.87l43.29-63.12h37.14l-53.06,75.41,52.79,75.69h-37.15l-42.73-63.12h17.31l-43.01,63.12h-37.14Z"/>
      <path class="cls-2" d="M602.36,494.94c-15.08,0-28.4-3.49-39.94-10.47-11.55-6.98-20.58-16.48-27.09-28.49-6.52-12.01-9.77-25.46-9.77-40.36s3.25-28.77,9.77-40.5c6.51-11.73,15.4-20.99,26.67-27.79,11.26-6.79,23.88-10.19,37.84-10.19,11.54,0,21.78,1.96,30.72,5.87,8.94,3.91,16.48,9.26,22.62,16.06,6.14,6.8,10.84,14.57,14.1,23.32,3.25,8.75,4.89,18.06,4.89,27.93,0,2.42-.1,4.94-.28,7.54-.19,2.61-.56,5.03-1.12,7.26h-120.37v-25.14h102.22l-14.8,11.45c1.68-9.12,1.02-17.27-1.96-24.44-2.98-7.17-7.64-12.85-13.96-17.04-6.33-4.19-13.68-6.28-22.06-6.28s-15.55,2.1-22.06,6.28c-6.52,4.19-11.55,10.2-15.08,18.01-3.54,7.82-4.94,17.13-4.19,27.93-.93,10.24.51,19.18,4.33,26.81,3.81,7.64,9.22,13.59,16.2,17.88,6.98,4.29,14.85,6.42,23.6,6.42,9.31,0,17.13-2.04,23.46-6.14,6.33-4.09,11.45-9.4,15.36-15.92l25.69,12.85c-2.98,7.08-7.59,13.4-13.82,18.99-6.24,5.59-13.69,10.01-22.34,13.27-8.66,3.26-18.2,4.89-28.63,4.89Z"/>
      <path class="cls-2" d="M688.93,491.59v-211.42h31.56v211.42h-31.56Z"/>
    </g>
    <g>
      <path class="cls-2" d="M254.93,719.72c-11.73,0-22.39-2.42-31.98-7.26-9.59-4.84-16.99-11.82-22.2-20.95l3.63-5.86v30.72h-30.16v-211.42h31.56v91.6l-5.03-7.26c5.59-8.56,13.03-15.26,22.34-20.11,9.31-4.84,19.92-7.26,31.84-7.26,14.34,0,27.23,3.45,38.68,10.33,11.45,6.89,20.48,16.29,27.09,28.21,6.61,11.92,9.91,25.32,9.91,40.22s-3.31,28.3-9.91,40.22c-6.61,11.92-15.6,21.37-26.95,28.35-11.36,6.98-24.3,10.47-38.82,10.47ZM251.58,690.39c8.94,0,16.9-2.14,23.88-6.42,6.98-4.28,12.43-10.19,16.34-17.73,3.91-7.54,5.86-16.06,5.86-25.55s-1.96-17.92-5.86-25.28c-3.91-7.35-9.36-13.22-16.34-17.59-6.98-4.37-14.94-6.56-23.88-6.56s-16.34,2.14-23.32,6.42c-6.98,4.29-12.48,10.19-16.48,17.73-4.01,7.54-6,15.97-6,25.28s2,18.01,6,25.55c4,7.54,9.5,13.45,16.48,17.73,6.98,4.29,14.75,6.42,23.32,6.42Z"/>
      <path class="cls-2" d="M602.64,719.72c-11.73,0-22.39-2.42-31.98-7.26-9.59-4.84-16.99-11.82-22.2-20.95l3.63-5.86v30.72h-30.16v-211.42h31.56v91.6l-5.03-7.26c5.59-8.56,13.03-15.26,22.34-20.11,9.31-4.84,19.92-7.26,31.84-7.26,14.34,0,27.23,3.45,38.68,10.33,11.45,6.89,20.48,16.29,27.09,28.21,6.61,11.92,9.91,25.32,9.91,40.22s-3.31,28.3-9.91,40.22c-6.61,11.92-15.6,21.37-26.95,28.35-11.36,6.98-24.3,10.47-38.82,10.47ZM599.29,690.39c8.94,0,16.9-2.14,23.88-6.42,6.98-4.28,12.43-10.19,16.34-17.73,3.91-7.54,5.87-16.06,5.87-25.55s-1.96-17.92-5.87-25.28c-3.91-7.35-9.36-13.22-16.34-17.59-6.98-4.37-14.94-6.56-23.88-6.56s-16.34,2.14-23.32,6.42c-6.98,4.29-12.48,10.19-16.48,17.73-4.01,7.54-6,15.97-6,25.28s2,18.01,6,25.55c4,7.54,9.5,13.45,16.48,17.73,6.98,4.29,14.75,6.42,23.32,6.42Z"/>
      <path class="cls-2" d="M746.47,719.72c-10.24,0-19.23-1.77-26.95-5.31-7.73-3.53-13.73-8.56-18.01-15.08-4.29-6.52-6.42-14.15-6.42-22.9,0-8.19,1.82-15.54,5.45-22.06,3.63-6.51,9.22-12.01,16.76-16.48,7.54-4.47,17.18-7.63,28.91-9.5l52.51-8.66v25.14l-46.36,7.82c-8.38,1.49-14.52,4.19-18.43,8.1-3.91,3.91-5.87,8.75-5.87,14.52s2.19,10.47,6.56,14.1c4.37,3.63,10.01,5.45,16.9,5.45,8.38,0,15.78-1.86,22.2-5.59,6.42-3.72,11.45-8.7,15.08-14.94,3.63-6.24,5.45-13.17,5.45-20.81v-38.82c0-7.26-2.79-13.27-8.38-18.01-5.59-4.75-12.94-7.12-22.06-7.12-8.19,0-15.41,2.14-21.64,6.42-6.24,4.29-10.85,9.96-13.83,17.04l-26.53-13.13c2.98-7.44,7.58-14.06,13.83-19.83,6.24-5.77,13.59-10.24,22.06-13.41,8.47-3.16,17.55-4.75,27.23-4.75,11.91,0,22.48,2.23,31.7,6.7,9.22,4.47,16.38,10.66,21.51,18.57,5.12,7.92,7.68,17.08,7.68,27.51v101.66h-30.16v-27.09l6.14.56c-3.54,6.14-8.01,11.45-13.41,15.92-5.4,4.47-11.64,7.92-18.71,10.33-7.08,2.42-14.8,3.63-23.18,3.63Z"/>
    </g>
  </g>
  <g>
    <path class="cls-1" d="M426.27,580.03c33.58,0,60.9,27.32,60.9,60.9s-27.32,60.9-60.9,60.9-60.9-27.32-60.9-60.9,27.32-60.9,60.9-60.9M426.27,562.03c-43.57,0-78.9,35.32-78.9,78.9s35.32,78.9,78.9,78.9,78.9-35.32,78.9-78.9-35.32-78.9-78.9-78.9h0Z"/>
    <g>
      <path class="cls-1" d="M474.96,640.93c1.59,0,2.88,1.34,2.79,2.93-1.52,27.09-23.96,48.59-51.43,48.59s-51.52-23.07-51.52-51.52c0-1.05.03-2.09.09-3.12.09-1.46,1.33-2.59,2.8-2.59l20.6.11c5.6.03,10.65,3.8,11.88,9.26,1.44,6.39,6.5,11.97,14.27,12.82,7.15.78,13.52-2.98,16.57-8.75,2.47-4.67,7.14-7.74,12.42-7.74h21.53Z"/>
      <circle class="cls-1" cx="404.84" cy="622.91" r="13.92"/>
      <rect class="cls-1" x="433.77" y="599.7" width="27.85" height="27.85" rx="3" ry="3"/>
    </g>
  </g>
</svg>