<svg width="120" height="28" viewBox="0 0 120 28" fill="none" xmlns="http://www.w3.org/2000/svg">
  <g fill="currentColor">
    <!-- P -->
    <path d="M4 4h6c3 0 5.5 2.5 5.5 5.5S13 15 10 15H7v6H4V4z M7 7v5h3c1.4 0 2.5-1.1 2.5-2.5S11.4 7 10 7H7z"/>
    <!-- i with boba dot -->
    <path d="M17 10h3v11h-3V10z"/>
    <circle cx="18.5" cy="6.5" r="1.5" fill="#A78BFA"/>
    <!-- x -->
    <path d="M23 10l2.5 3.5L28 10h3l-3.5 4.5L31 21h-3l-2.5-3.5L23 21h-3l3.5-6.5L20 10h3z"/>
    <!-- e -->
    <path d="M33 13.5c0-2.5 2-4.5 4.5-4.5S42 11 42 13.5v1h-6c0 .8.7 1.5 1.5 1.5h4.5v2h-4.5c-2.5 0-4.5-2-4.5-4.5z M36 12h3c0-.8-.7-1.5-1.5-1.5S36 11.2 36 12z"/>
    <!-- l -->
    <path d="M44 4h3v17h-3V4z"/>
    <!-- Space -->
    <!-- B -->
    <path d="M54 4h6c3 0 5.5 2.5 5.5 5.5 0 1.5-.6 2.9-1.6 3.9 1 1 1.6 2.4 1.6 3.9 0 3-2.5 5.5-5.5 5.5h-6V4z M57 7v5h3c1.4 0 2.5-1.1 2.5-2.5S61.4 7 60 7h-3z M57 15v5h3c1.9 0 3.5-1.6 3.5-3.5S60.9 15 59 15h-2z"/>
    <!-- o -->
    <path d="M68 13.5c0-3 2.5-5.5 5.5-5.5s5.5 2.5 5.5 5.5v3c0 3-2.5 5.5-5.5 5.5s-5.5-2.5-5.5-5.5v-3z M71 13.5v3c0 1.4 1.1 2.5 2.5 2.5s2.5-1.1 2.5-2.5v-3c0-1.4-1.1-2.5-2.5-2.5s-2.5 1.1-2.5 2.5z"/>
    <!-- b -->
    <path d="M81 4h3v4.5c.8-.8 1.9-1.5 3.2-1.5 2.8 0 5 2.2 5 5v4c0 2.8-2.2 5-5 5-1.3 0-2.4-.7-3.2-1.5V21h-3V4z M84 12v4c0 1.1.9 2 2 2s2-.9 2-2v-4c0-1.1-.9-2-2-2s-2 .9-2 2z"/>
    <!-- a -->
    <path d="M96 8c2.8 0 5 2.2 5 5v8h-3v-1c-.8.8-1.9 1.5-3.2 1.5-2.8 0-5-2.2-5-5s2.2-5 5-5c.8 0 1.6.2 2.3.6V13c0-1.1-.9-2-2-2-.8 0-1.5.5-1.8 1.2l-2.6-1.5C91.4 9.2 93.6 8 96 8z M95.5 17c-.8 0-1.5.7-1.5 1.5s.7 1.5 1.5 1.5 1.5-.7 1.5-1.5-.7-1.5-1.5-1.5z"/>
  </g>
</svg>